<svg width="93" height="75" viewBox="0 0 93 75" fill="none" xmlns="http://www.w3.org/2000/svg">
<path d="M32 0C49.6731 0 64 14.3269 64 32C64 39.446 61.4564 46.2976 57.1914 51.7344L67 59L66 48.5L92.5 68.5L73 60L74 74.5L51.1758 57.6191C45.8316 61.6257 39.1933 64 32 64C14.3269 64 0 49.6731 0 32C0 14.3269 14.3269 0 32 0ZM32 10C19.8497 10 10 19.8497 10 32C10 44.1503 19.8497 54 32 54C35.8445 54 39.4578 53.0124 42.6025 51.2793L26 39H40L49.1494 45.7773C52.1827 42.0065 54 37.2161 54 32C54 19.8497 44.1503 10 32 10Z" fill="#F19A25"/>
</svg>
